<?xml version="1.0" standalone="no"?>
<!DOCTYPE svg PUBLIC "-//W3C//DTD SVG 20010904//EN"
 "http://www.w3.org/TR/2001/REC-SVG-20010904/DTD/svg10.dtd">
<svg version="1.0" xmlns="http://www.w3.org/2000/svg"
 width="1152.000000pt" height="920.000000pt" viewBox="0 0 1152.000000 920.000000"
 preserveAspectRatio="xMidYMid meet">

<g transform="translate(0.000000,920.000000) scale(0.100000,-0.100000)"
fill="#000000" stroke="none">
<path d="M6530 9000 c0 -19 -7 -20 -180 -20 -119 0 -187 4 -199 12 -24 15 -51
4 -51 -22 0 -26 27 -37 51 -22 11 7 63 12 131 12 l113 0 -80 -28 c-246 -84
-433 -271 -517 -517 l-28 -80 0 123 c0 80 4 122 11 122 6 0 9 10 7 23 -2 16
-10 22 -28 22 -18 0 -26 -6 -28 -22 -2 -13 1 -23 7 -23 8 0 11 -62 11 -190 0
-183 -1 -190 -20 -190 -17 0 -20 -7 -20 -50 0 -43 3 -50 20 -50 19 0 20 -7 20
-190 0 -128 -3 -190 -11 -190 -6 0 -9 -10 -7 -22 2 -17 10 -23 28 -23 18 0 26
6 28 23 2 12 -1 22 -7 22 -7 0 -11 42 -11 123 l1 122 23 -72 c81 -249 282
-449 536 -534 l55 -18 -108 0 c-65 -1 -115 4 -126 11 -24 15 -51 4 -51 -22 0
-26 27 -37 51 -22 12 8 80 12 199 12 173 0 180 -1 180 -20 0 -17 7 -20 50 -20
43 0 50 3 50 20 0 19 7 20 190 20 120 0 190 -4 190 -10 0 -16 36 -12 50 6 11
12 10 18 -4 32 -13 14 -20 14 -36 4 -13 -8 -60 -12 -132 -12 l-113 0 81 28
c243 85 443 295 521 547 l18 60 3 -119 c2 -99 0 -122 -14 -137 -20 -23 -12
-49 16 -49 26 0 37 27 22 51 -8 12 -12 80 -12 199 0 173 1 180 20 180 17 0 20
7 20 50 0 43 -3 50 -20 50 -19 0 -20 7 -20 180 0 119 4 187 12 199 15 24 4 51
-22 51 -28 0 -36 -26 -16 -49 14 -15 16 -38 14 -137 l-3 -119 -28 86 c-80 244
-292 453 -537 530 l-55 17 113 1 c73 1 119 -3 132 -11 16 -10 23 -10 36 4 14
14 15 20 4 32 -14 18 -50 22 -50 6 0 -6 -70 -10 -190 -10 -183 0 -190 1 -190
20 0 17 -7 20 -50 20 -43 0 -50 -3 -50 -20z"/>
<path d="M5840 6810 c0 -20 -7 -20 -267 -20 -218 1 -272 3 -287 15 -22 17 -46
4 -46 -25 0 -25 29 -34 50 -15 13 12 44 15 156 14 l139 -1 -125 -23 c-161 -29
-271 -56 -392 -95 -65 -20 -106 -28 -124 -24 -21 5 -30 2 -43 -14 -18 -24
-554 -245 -559 -231 -2 5 -26 9 -52 9 -47 0 -49 -1 -52 -32 -3 -31 -7 -33
-143 -88 -77 -31 -153 -56 -170 -56 -26 1 -30 -3 -30 -24 0 -33 44 -42 52 -11
4 17 35 35 103 58 8 3 -19 -18 -60 -47 -138 -96 -285 -236 -386 -366 -25 -32
-48 -61 -51 -64 -3 -3 8 23 25 56 20 39 39 63 52 67 32 8 24 52 -10 52 -22 0
-26 -6 -31 -40 -3 -22 -34 -97 -70 -167 -62 -126 -64 -128 -97 -128 l-33 0 2
-62 c2 -48 -3 -76 -20 -115 -22 -49 -26 -53 -58 -53 l-34 0 2 -62 c2 -56 -2
-71 -39 -144 -27 -55 -48 -83 -62 -87 -32 -8 -24 -52 10 -52 21 0 25 5 26 30
1 17 13 53 27 80 l25 50 -5 -66 c-11 -138 45 -310 133 -408 25 -28 43 -51 40
-51 -23 0 -104 52 -109 70 -8 32 -52 24 -52 -10 0 -21 5 -25 30 -26 17 -1 72
-22 123 -48 86 -43 92 -48 92 -77 l0 -30 58 2 c49 2 68 -4 139 -39 50 -26 84
-49 88 -62 7 -24 37 -26 55 -5 18 21 -4 46 -39 43 -14 -1 -48 10 -75 24 l-49
25 82 -5 c137 -8 291 45 390 134 28 25 51 43 51 40 0 -23 -52 -104 -70 -109
-32 -8 -24 -52 10 -52 22 0 25 4 24 31 -1 19 16 65 45 120 43 82 48 89 79 92
l33 3 -2 62 c-2 51 2 72 24 115 25 48 30 52 63 52 l36 0 -4 61 c-4 55 -2 62
19 76 13 8 23 21 23 27 0 14 51 66 65 66 5 0 19 10 32 22 19 18 33 21 83 19
l60 -2 0 29 c0 29 5 31 177 101 106 43 179 68 181 62 2 -6 10 -11 18 -11 11 0
13 -7 7 -27 -3 -16 -56 -226 -117 -468 l-111 -440 -27 -3 c-26 -3 -28 -6 -28
-53 0 -38 4 -49 16 -49 10 0 14 -6 10 -17 -3 -10 -17 -67 -32 -128 -16 -69
-33 -116 -45 -127 -24 -21 -24 -45 0 -57 27 -15 44 9 36 51 -3 18 1 56 8 83
l13 50 7 -105 c12 -189 50 -334 127 -479 l41 -76 -46 47 c-25 26 -45 56 -45
66 0 25 -25 46 -45 38 -8 -3 -15 -17 -15 -31 0 -19 5 -25 23 -25 15 0 44 -24
92 -77 102 -112 115 -132 115 -175 0 -37 1 -38 39 -38 38 0 43 -6 510 -515
l471 -514 0 -46 0 -45 38 0 c41 0 64 -18 99 -76 10 -17 33 -55 51 -85 18 -30
35 -65 38 -79 4 -14 12 -32 19 -40 7 -8 15 -27 19 -42 3 -14 9 -33 12 -42 4
-11 1 -16 -10 -16 -12 0 -16 -10 -16 -45 0 -41 2 -45 24 -45 14 0 28 -5 32
-12 4 -6 71 -267 149 -580 106 -420 139 -568 129 -568 -10 0 -14 -14 -14 -49
0 -46 2 -50 27 -53 24 -3 29 -10 46 -73 10 -38 19 -97 20 -130 2 -57 3 -60 27
-60 32 0 41 39 12 54 -11 6 -22 23 -25 39 -3 17 -9 43 -13 58 -5 23 2 17 38
-31 54 -73 130 -133 222 -176 56 -26 87 -34 160 -38 l91 -6 -75 -21 c-53 -15
-80 -18 -91 -11 -25 15 -51 1 -47 -25 4 -28 37 -36 54 -14 6 9 53 28 104 41
108 29 110 30 110 10 0 -11 12 -15 50 -15 48 0 50 1 50 29 0 28 3 30 78 49
123 33 129 34 149 24 26 -13 43 -4 43 24 0 33 -29 43 -49 17 -15 -18 -108 -49
-118 -40 -2 3 12 14 31 26 121 75 232 274 237 424 1 25 5 18 18 -33 13 -47 15
-70 7 -82 -13 -22 14 -54 38 -45 20 8 21 46 1 61 -9 6 -27 54 -40 106 -29 113
-29 110 -10 110 11 0 15 12 15 45 0 41 -2 45 -25 45 -17 0 -29 8 -35 23 -8 18
-350 1391 -350 1403 0 2 7 4 15 4 11 0 15 12 15 50 0 48 -1 50 -29 50 -26 0
-30 5 -40 45 -7 30 -8 52 -2 63 12 23 -1 44 -27 46 -31 2 -76 90 -60 116 14
22 -4 50 -33 50 -30 0 -69 61 -69 108 l0 41 -42 3 c-42 3 -47 7 -351 338 -383
416 -387 421 -387 470 0 21 -5 40 -12 42 -12 4 247 1064 262 1073 5 3 21 -32
36 -77 15 -46 29 -89 32 -95 2 -7 -3 -13 -13 -13 -13 0 -16 -8 -13 -42 3 -39
6 -43 32 -48 27 -5 32 -12 61 -101 22 -64 30 -101 24 -112 -5 -8 -6 -22 -3
-31 8 -21 50 -21 58 0 5 13 13 7 37 -27 17 -24 56 -69 86 -100 50 -52 53 -57
33 -62 -16 -4 -21 -12 -18 -29 2 -19 9 -23 38 -24 21 0 68 -17 118 -43 78 -41
82 -45 82 -77 0 -33 1 -34 43 -34 24 0 47 4 52 8 6 5 73 -25 155 -67 140 -73
145 -77 148 -110 l3 -33 57 4 c51 5 65 1 140 -36 45 -22 82 -46 82 -52 0 -18
26 -35 44 -28 9 3 16 16 16 29 0 24 -21 38 -44 29 -8 -3 -36 6 -63 20 l-48 25
89 1 c151 0 282 48 378 138 l50 47 -28 -58 c-15 -31 -36 -59 -45 -62 -24 -8
-30 -30 -14 -52 20 -26 51 -5 48 33 -1 18 16 64 45 119 44 84 49 90 81 93 l33
3 -4 57 c-5 51 -1 65 35 139 24 48 48 84 59 86 12 3 18 14 18 32 0 23 -4 26
-27 23 -25 -3 -28 -7 -28 -38 -1 -19 -12 -57 -26 -84 l-26 -49 0 120 c-1 171
-36 269 -139 383 l-38 42 56 -28 c32 -15 61 -38 67 -51 12 -26 33 -30 50 -9
22 26 1 51 -41 47 -9 -1 -57 19 -107 44 -89 44 -91 46 -91 81 l0 36 -62 -5
c-62 -5 -65 -4 -200 67 -133 69 -138 72 -138 103 0 28 -3 32 -32 35 l-33 3
-64 200 c-42 131 -60 200 -52 203 6 2 11 23 11 47 0 40 -2 44 -27 47 -27 3
-31 12 -140 333 -88 260 -111 338 -107 366 6 41 -5 54 -36 44 -25 -8 -26 -38
-1 -56 15 -11 105 -261 169 -469 2 -8 -18 23 -45 70 -277 483 -710 808 -1233
929 l-85 19 233 1 c160 1 238 -3 251 -11 24 -15 51 -4 51 22 0 26 -27 37 -51
22 -13 -9 -122 -12 -374 -12 -348 0 -355 0 -355 20 0 17 -7 20 -45 20 -38 0
-45 -3 -45 -20z m1025 -2390 c9 -16 11 -30 6 -30 -5 0 -14 14 -20 30 -5 17 -8
30 -6 30 3 0 11 -13 20 -30z m270 -310 c4 -6 -5 -5 -19 2 -14 6 -26 15 -26 20
0 10 36 -7 45 -22z"/>
<path d="M4480 3386 c-16 -20 -6 -46 19 -46 25 0 91 -74 91 -103 0 -13 4 -27
9 -32 5 -6 -58 -173 -148 -395 l-156 -385 -32 -3 c-32 -3 -33 -4 -33 -53 0
-27 5 -49 10 -49 6 0 4 -13 -5 -30 -9 -16 -20 -30 -25 -30 -6 0 -10 -7 -10
-16 0 -25 -41 -93 -67 -109 -13 -9 -23 -21 -23 -29 0 -25 -36 -46 -78 -46
l-42 0 0 -48 0 -47 -383 -383 -382 -382 -43 0 -42 0 0 -41 c0 -37 -6 -48 -71
-115 -39 -40 -80 -74 -92 -76 -31 -5 -45 -34 -26 -53 20 -20 49 -9 49 19 0 13
19 40 45 66 l44 43 -29 -74 c-27 -68 -29 -85 -30 -202 0 -103 4 -139 21 -190
11 -34 25 -66 30 -71 5 -6 9 -15 9 -20 0 -22 -89 78 -92 103 -2 20 -9 26 -28
26 -20 0 -25 -5 -25 -25 0 -20 6 -26 27 -28 18 -2 49 -27 97 -78 64 -66 71
-78 71 -114 0 -40 0 -40 40 -40 36 0 48 -7 114 -71 51 -48 76 -79 78 -97 2
-21 8 -27 28 -27 20 0 25 5 25 25 0 19 -6 26 -26 28 -26 3 -124 92 -102 92 7
0 15 -4 18 -10 3 -5 38 -19 76 -31 61 -18 88 -21 207 -17 122 4 143 7 197 32
l60 27 -45 -45 c-26 -27 -53 -46 -66 -46 -26 0 -39 -27 -23 -46 16 -20 37 -17
49 6 6 11 7 20 3 20 -4 0 28 36 72 80 75 75 82 80 122 80 l43 0 0 43 0 42 463
463 462 462 43 0 42 0 0 43 c0 33 6 49 23 65 13 12 26 19 30 16 13 -13 38 19
33 42 -8 32 23 82 54 86 21 3 25 8 26 38 1 63 12 80 50 80 l34 0 0 49 c0 29
-5 51 -12 53 -8 3 20 84 83 239 l94 234 33 3 c31 3 32 5 32 48 l0 44 -39 0
c-46 0 -29 -16 -396 385 -131 142 -242 272 -247 287 -6 15 -17 28 -26 28 -10
0 -36 26 -59 57 -38 50 -43 62 -43 110 l0 54 -55 -2 c-46 -2 -59 1 -79 20 -14
13 -26 35 -28 50 -3 30 -29 39 -48 17z"/>
</g>
</svg>
